<?xml version="1.0" encoding="utf-8"?>
<!-- Generator: Adobe Illustrator 17.0.2, SVG Export Plug-In . SVG Version: 6.00 Build 0)  -->
<!DOCTYPE svg PUBLIC "-//W3C//DTD SVG 1.1//EN" "http://www.w3.org/Graphics/SVG/1.1/DTD/svg11.dtd">
<svg version="1.1" id="Calque_1" xmlns="http://www.w3.org/2000/svg" xmlns:xlink="http://www.w3.org/1999/xlink" x="0px" y="0px"
	 width="26px" height="26px" viewBox="0 0 26 26" enable-background="new 0 0 26 26" xml:space="preserve">
<path fill="#95A5A6" d="M25.492,24.23l-7.541-7.543c1.48-1.732,2.378-3.973,2.378-6.424c0-5.465-4.445-9.91-9.91-9.91
	s-9.91,4.445-9.91,9.91c0,5.465,4.446,9.91,9.91,9.91c2.292,0,4.399-0.789,6.079-2.1l7.575,7.577L25.492,24.23z M10.419,18.165
	c-4.358,0-7.903-3.546-7.903-7.903s3.545-7.903,7.903-7.903c4.358,0,7.903,3.545,7.903,7.903S14.776,18.165,10.419,18.165z"/>
</svg>
